<svg xmlns="http://www.w3.org/2000/svg" width="1180" height="572" viewBox="0 0 1180 572">
<rect width="100%" height="100%" fill="#ffffff"/>
<text x="74" y="34" font-size="24" font-weight="700" fill="#111827">Prydwen T0-T2 主C - 虚构叙事 近半年出场率</text>
<text x="74" y="56" font-size="13" fill="#6b7280">T档来自 Prydwen 当前榜；出场率来自本地 MocStats long table，数值单位为 %。</text>
<line x1="74" y1="430.0" x2="820" y2="430.0" stroke="#e5e7eb"/>
<text x="64" y="434.0" text-anchor="end" font-size="11" fill="#6b7280">0</text>
<line x1="74" y1="358.0" x2="820" y2="358.0" stroke="#e5e7eb"/>
<text x="64" y="362.0" text-anchor="end" font-size="11" fill="#6b7280">12</text>
<line x1="74" y1="286.0" x2="820" y2="286.0" stroke="#e5e7eb"/>
<text x="64" y="290.0" text-anchor="end" font-size="11" fill="#6b7280">25</text>
<line x1="74" y1="214.0" x2="820" y2="214.0" stroke="#e5e7eb"/>
<text x="64" y="218.0" text-anchor="end" font-size="11" fill="#6b7280">37</text>
<line x1="74" y1="142.0" x2="820" y2="142.0" stroke="#e5e7eb"/>
<text x="64" y="146.0" text-anchor="end" font-size="11" fill="#6b7280">50</text>
<line x1="74" y1="70.0" x2="820" y2="70.0" stroke="#e5e7eb"/>
<text x="64" y="74.0" text-anchor="end" font-size="11" fill="#6b7280">62</text>
<line x1="74" y1="70" x2="74" y2="430" stroke="#374151"/>
<line x1="74" y1="430" x2="820" y2="430" stroke="#374151"/>
<text x="74.0" y="452" text-anchor="middle" font-size="11" fill="#374151">02-22</text>
<text x="167.2" y="452" text-anchor="middle" font-size="11" fill="#374151">03-06</text>
<text x="260.5" y="452" text-anchor="middle" font-size="11" fill="#374151">04-03</text>
<text x="353.8" y="452" text-anchor="middle" font-size="11" fill="#374151">04-19</text>
<text x="447.0" y="452" text-anchor="middle" font-size="11" fill="#374151">05-02</text>
<text x="540.2" y="452" text-anchor="middle" font-size="11" fill="#374151">05-16</text>
<text x="633.5" y="452" text-anchor="middle" font-size="11" fill="#374151">05-29</text>
<text x="726.8" y="452" text-anchor="middle" font-size="11" fill="#374151">06-11</text>
<text x="820.0" y="452" text-anchor="middle" font-size="11" fill="#374151">06-25</text>
<polyline points="74.0,118.5 167.2,116.9 260.5,184.0 353.8,176.0 447.0,180.7 540.2,146.9 633.5,148.4 726.8,144.3 820.0,112.0" fill="none" stroke="#2563eb" stroke-width="2.2"/>
<circle cx="74.0" cy="118.5" r="2.8" fill="#2563eb"/>
<circle cx="167.2" cy="116.9" r="2.8" fill="#2563eb"/>
<circle cx="260.5" cy="184.0" r="2.8" fill="#2563eb"/>
<circle cx="353.8" cy="176.0" r="2.8" fill="#2563eb"/>
<circle cx="447.0" cy="180.7" r="2.8" fill="#2563eb"/>
<circle cx="540.2" cy="146.9" r="2.8" fill="#2563eb"/>
<circle cx="633.5" cy="148.4" r="2.8" fill="#2563eb"/>
<circle cx="726.8" cy="144.3" r="2.8" fill="#2563eb"/>
<circle cx="820.0" cy="112.0" r="2.8" fill="#2563eb"/>
<line x1="856" y1="82" x2="878" y2="82" stroke="#2563eb" stroke-width="3"/>
<text x="886" y="86" font-size="12" fill="#111827">遐蝶 T0</text>
<polyline points="447.0,377.8 540.2,108.6 633.5,124.8 726.8,117.5 820.0,119.4" fill="none" stroke="#dc2626" stroke-width="2.2"/>
<circle cx="447.0" cy="377.8" r="2.8" fill="#dc2626"/>
<circle cx="540.2" cy="108.6" r="2.8" fill="#dc2626"/>
<circle cx="633.5" cy="124.8" r="2.8" fill="#dc2626"/>
<circle cx="726.8" cy="117.5" r="2.8" fill="#dc2626"/>
<circle cx="820.0" cy="119.4" r="2.8" fill="#dc2626"/>
<line x1="856" y1="104" x2="878" y2="104" stroke="#dc2626" stroke-width="3"/>
<text x="886" y="108" font-size="12" fill="#111827">银狼LV.999 T0</text>
<polyline points="74.0,172.8 167.2,171.9 260.5,212.3 353.8,207.6 447.0,214.0 540.2,178.0 633.5,180.2 726.8,177.2 820.0,144.7" fill="none" stroke="#16a34a" stroke-width="2.2"/>
<circle cx="74.0" cy="172.8" r="2.8" fill="#16a34a"/>
<circle cx="167.2" cy="171.9" r="2.8" fill="#16a34a"/>
<circle cx="260.5" cy="212.3" r="2.8" fill="#16a34a"/>
<circle cx="353.8" cy="207.6" r="2.8" fill="#16a34a"/>
<circle cx="447.0" cy="214.0" r="2.8" fill="#16a34a"/>
<circle cx="540.2" cy="178.0" r="2.8" fill="#16a34a"/>
<circle cx="633.5" cy="180.2" r="2.8" fill="#16a34a"/>
<circle cx="726.8" cy="177.2" r="2.8" fill="#16a34a"/>
<circle cx="820.0" cy="144.7" r="2.8" fill="#16a34a"/>
<line x1="856" y1="126" x2="878" y2="126" stroke="#16a34a" stroke-width="3"/>
<text x="886" y="130" font-size="12" fill="#111827">长夜月 T0</text>
<polyline points="167.2,410.6 260.5,250.9 353.8,254.3 447.0,395.0 540.2,203.8 633.5,216.0 726.8,213.2 820.0,214.7" fill="none" stroke="#9333ea" stroke-width="2.2"/>
<circle cx="167.2" cy="410.6" r="2.8" fill="#9333ea"/>
<circle cx="260.5" cy="250.9" r="2.8" fill="#9333ea"/>
<circle cx="353.8" cy="254.3" r="2.8" fill="#9333ea"/>
<circle cx="447.0" cy="395.0" r="2.8" fill="#9333ea"/>
<circle cx="540.2" cy="203.8" r="2.8" fill="#9333ea"/>
<circle cx="633.5" cy="216.0" r="2.8" fill="#9333ea"/>
<circle cx="726.8" cy="213.2" r="2.8" fill="#9333ea"/>
<circle cx="820.0" cy="214.7" r="2.8" fill="#9333ea"/>
<line x1="856" y1="148" x2="878" y2="148" stroke="#9333ea" stroke-width="3"/>
<text x="886" y="152" font-size="12" fill="#111827">火花 T0</text>
<polyline points="74.0,294.6 167.2,298.2 260.5,358.9 353.8,355.8 447.0,343.4 540.2,373.3 633.5,374.4 726.8,373.5 820.0,256.7" fill="none" stroke="#ea580c" stroke-width="2.2"/>
<circle cx="74.0" cy="294.6" r="2.8" fill="#ea580c"/>
<circle cx="167.2" cy="298.2" r="2.8" fill="#ea580c"/>
<circle cx="260.5" cy="358.9" r="2.8" fill="#ea580c"/>
<circle cx="353.8" cy="355.8" r="2.8" fill="#ea580c"/>
<circle cx="447.0" cy="343.4" r="2.8" fill="#ea580c"/>
<circle cx="540.2" cy="373.3" r="2.8" fill="#ea580c"/>
<circle cx="633.5" cy="374.4" r="2.8" fill="#ea580c"/>
<circle cx="726.8" cy="373.5" r="2.8" fill="#ea580c"/>
<circle cx="820.0" cy="256.7" r="2.8" fill="#ea580c"/>
<line x1="856" y1="170" x2="878" y2="170" stroke="#ea580c" stroke-width="3"/>
<text x="886" y="174" font-size="12" fill="#111827">流萤 T0.5</text>
<polyline points="74.0,304.1 167.2,305.5 260.5,242.3 353.8,246.2 447.0,257.5 540.2,321.8 633.5,323.7 726.8,322.6 820.0,284.4" fill="none" stroke="#0891b2" stroke-width="2.2"/>
<circle cx="74.0" cy="304.1" r="2.8" fill="#0891b2"/>
<circle cx="167.2" cy="305.5" r="2.8" fill="#0891b2"/>
<circle cx="260.5" cy="242.3" r="2.8" fill="#0891b2"/>
<circle cx="353.8" cy="246.2" r="2.8" fill="#0891b2"/>
<circle cx="447.0" cy="257.5" r="2.8" fill="#0891b2"/>
<circle cx="540.2" cy="321.8" r="2.8" fill="#0891b2"/>
<circle cx="633.5" cy="323.7" r="2.8" fill="#0891b2"/>
<circle cx="726.8" cy="322.6" r="2.8" fill="#0891b2"/>
<circle cx="820.0" cy="284.4" r="2.8" fill="#0891b2"/>
<line x1="856" y1="192" x2="878" y2="192" stroke="#0891b2" stroke-width="3"/>
<text x="886" y="196" font-size="12" fill="#111827">海瑟音 T0.5</text>
<polyline points="540.2,402.1 633.5,367.8 726.8,362.0 820.0,297.3" fill="none" stroke="#be123c" stroke-width="2.2"/>
<circle cx="540.2" cy="402.1" r="2.8" fill="#be123c"/>
<circle cx="633.5" cy="367.8" r="2.8" fill="#be123c"/>
<circle cx="726.8" cy="362.0" r="2.8" fill="#be123c"/>
<circle cx="820.0" cy="297.3" r="2.8" fill="#be123c"/>
<line x1="856" y1="214" x2="878" y2="214" stroke="#be123c" stroke-width="3"/>
<text x="886" y="218" font-size="12" fill="#111827">绯英 T0</text>
<polyline points="74.0,419.1 167.2,419.6 260.5,415.4 353.8,415.8 447.0,417.7 540.2,427.3 633.5,427.5 726.8,419.4 820.0,317.9" fill="none" stroke="#4f46e5" stroke-width="2.2"/>
<circle cx="74.0" cy="419.1" r="2.8" fill="#4f46e5"/>
<circle cx="167.2" cy="419.6" r="2.8" fill="#4f46e5"/>
<circle cx="260.5" cy="415.4" r="2.8" fill="#4f46e5"/>
<circle cx="353.8" cy="415.8" r="2.8" fill="#4f46e5"/>
<circle cx="447.0" cy="417.7" r="2.8" fill="#4f46e5"/>
<circle cx="540.2" cy="427.3" r="2.8" fill="#4f46e5"/>
<circle cx="633.5" cy="427.5" r="2.8" fill="#4f46e5"/>
<circle cx="726.8" cy="419.4" r="2.8" fill="#4f46e5"/>
<circle cx="820.0" cy="317.9" r="2.8" fill="#4f46e5"/>
<line x1="856" y1="236" x2="878" y2="236" stroke="#4f46e5" stroke-width="3"/>
<text x="886" y="240" font-size="12" fill="#111827">黄泉 T0.5</text>
<polyline points="74.0,307.5 167.2,309.6 260.5,347.2 353.8,347.2 447.0,349.8 540.2,375.4 633.5,377.4 726.8,374.8 820.0,345.5" fill="none" stroke="#65a30d" stroke-width="2.2"/>
<circle cx="74.0" cy="307.5" r="2.8" fill="#65a30d"/>
<circle cx="167.2" cy="309.6" r="2.8" fill="#65a30d"/>
<circle cx="260.5" cy="347.2" r="2.8" fill="#65a30d"/>
<circle cx="353.8" cy="347.2" r="2.8" fill="#65a30d"/>
<circle cx="447.0" cy="349.8" r="2.8" fill="#65a30d"/>
<circle cx="540.2" cy="375.4" r="2.8" fill="#65a30d"/>
<circle cx="633.5" cy="377.4" r="2.8" fill="#65a30d"/>
<circle cx="726.8" cy="374.8" r="2.8" fill="#65a30d"/>
<circle cx="820.0" cy="345.5" r="2.8" fill="#65a30d"/>
<line x1="856" y1="258" x2="878" y2="258" stroke="#65a30d" stroke-width="3"/>
<text x="886" y="262" font-size="12" fill="#111827">白厄 T1</text>
<polyline points="74.0,310.0 167.2,313.5 260.5,349.4 353.8,348.1 447.0,352.8 540.2,358.6 633.5,358.0 726.8,356.3 820.0,352.4" fill="none" stroke="#a16207" stroke-width="2.2"/>
<circle cx="74.0" cy="310.0" r="2.8" fill="#a16207"/>
<circle cx="167.2" cy="313.5" r="2.8" fill="#a16207"/>
<circle cx="260.5" cy="349.4" r="2.8" fill="#a16207"/>
<circle cx="353.8" cy="348.1" r="2.8" fill="#a16207"/>
<circle cx="447.0" cy="352.8" r="2.8" fill="#a16207"/>
<circle cx="540.2" cy="358.6" r="2.8" fill="#a16207"/>
<circle cx="633.5" cy="358.0" r="2.8" fill="#a16207"/>
<circle cx="726.8" cy="356.3" r="2.8" fill="#a16207"/>
<circle cx="820.0" cy="352.4" r="2.8" fill="#a16207"/>
<line x1="856" y1="280" x2="878" y2="280" stroke="#a16207" stroke-width="3"/>
<text x="886" y="284" font-size="12" fill="#111827">大黑塔 T0.5</text>
<polyline points="74.0,385.8 167.2,387.1 260.5,400.8 353.8,400.0 447.0,401.0 540.2,406.2 633.5,405.9 726.8,405.2 820.0,401.7" fill="none" stroke="#0f766e" stroke-width="2.2"/>
<circle cx="74.0" cy="385.8" r="2.8" fill="#0f766e"/>
<circle cx="167.2" cy="387.1" r="2.8" fill="#0f766e"/>
<circle cx="260.5" cy="400.8" r="2.8" fill="#0f766e"/>
<circle cx="353.8" cy="400.0" r="2.8" fill="#0f766e"/>
<circle cx="447.0" cy="401.0" r="2.8" fill="#0f766e"/>
<circle cx="540.2" cy="406.2" r="2.8" fill="#0f766e"/>
<circle cx="633.5" cy="405.9" r="2.8" fill="#0f766e"/>
<circle cx="726.8" cy="405.2" r="2.8" fill="#0f766e"/>
<circle cx="820.0" cy="401.7" r="2.8" fill="#0f766e"/>
<line x1="856" y1="302" x2="878" y2="302" stroke="#0f766e" stroke-width="3"/>
<text x="886" y="306" font-size="12" fill="#111827">那刻夏 T1</text>
<polyline points="260.5,424.0 353.8,423.8 447.0,423.8 540.2,426.7 633.5,426.5 726.8,425.1 820.0,410.4" fill="none" stroke="#7c3aed" stroke-width="2.2"/>
<circle cx="260.5" cy="424.0" r="2.8" fill="#7c3aed"/>
<circle cx="353.8" cy="423.8" r="2.8" fill="#7c3aed"/>
<circle cx="447.0" cy="423.8" r="2.8" fill="#7c3aed"/>
<circle cx="540.2" cy="426.7" r="2.8" fill="#7c3aed"/>
<circle cx="633.5" cy="426.5" r="2.8" fill="#7c3aed"/>
<circle cx="726.8" cy="425.1" r="2.8" fill="#7c3aed"/>
<circle cx="820.0" cy="410.4" r="2.8" fill="#7c3aed"/>
<line x1="856" y1="324" x2="878" y2="324" stroke="#7c3aed" stroke-width="3"/>
<text x="886" y="328" font-size="12" fill="#111827">不死途 T0.5</text>
<polyline points="74.0,374.0 167.2,374.6 260.5,413.6 353.8,413.8 447.0,416.4 540.2,423.9 633.5,424.6 726.8,424.5 820.0,415.5" fill="none" stroke="#2563eb" stroke-width="2.2"/>
<circle cx="74.0" cy="374.0" r="2.8" fill="#2563eb"/>
<circle cx="167.2" cy="374.6" r="2.8" fill="#2563eb"/>
<circle cx="260.5" cy="413.6" r="2.8" fill="#2563eb"/>
<circle cx="353.8" cy="413.8" r="2.8" fill="#2563eb"/>
<circle cx="447.0" cy="416.4" r="2.8" fill="#2563eb"/>
<circle cx="540.2" cy="423.9" r="2.8" fill="#2563eb"/>
<circle cx="633.5" cy="424.6" r="2.8" fill="#2563eb"/>
<circle cx="726.8" cy="424.5" r="2.8" fill="#2563eb"/>
<circle cx="820.0" cy="415.5" r="2.8" fill="#2563eb"/>
<line x1="856" y1="346" x2="878" y2="346" stroke="#2563eb" stroke-width="3"/>
<text x="886" y="350" font-size="12" fill="#111827">Archer T1.5</text>
<polyline points="74.0,429.7 167.2,429.7 260.5,429.9 353.8,429.9 447.0,423.8 540.2,418.6 633.5,419.8 726.8,420.5 820.0,415.9" fill="none" stroke="#dc2626" stroke-width="2.2"/>
<circle cx="74.0" cy="429.7" r="2.8" fill="#dc2626"/>
<circle cx="167.2" cy="429.7" r="2.8" fill="#dc2626"/>
<circle cx="260.5" cy="429.9" r="2.8" fill="#dc2626"/>
<circle cx="353.8" cy="429.9" r="2.8" fill="#dc2626"/>
<circle cx="447.0" cy="423.8" r="2.8" fill="#dc2626"/>
<circle cx="540.2" cy="418.6" r="2.8" fill="#dc2626"/>
<circle cx="633.5" cy="419.8" r="2.8" fill="#dc2626"/>
<circle cx="726.8" cy="420.5" r="2.8" fill="#dc2626"/>
<circle cx="820.0" cy="415.9" r="2.8" fill="#dc2626"/>
<line x1="856" y1="368" x2="878" y2="368" stroke="#dc2626" stroke-width="3"/>
<text x="886" y="372" font-size="12" fill="#111827">希儿 T1</text>
<polyline points="74.0,423.9 167.2,423.8 260.5,419.7 353.8,419.7 447.0,420.4 540.2,426.3 633.5,426.5 726.8,426.7 820.0,421.9" fill="none" stroke="#16a34a" stroke-width="2.2"/>
<circle cx="74.0" cy="423.9" r="2.8" fill="#16a34a"/>
<circle cx="167.2" cy="423.8" r="2.8" fill="#16a34a"/>
<circle cx="260.5" cy="419.7" r="2.8" fill="#16a34a"/>
<circle cx="353.8" cy="419.7" r="2.8" fill="#16a34a"/>
<circle cx="447.0" cy="420.4" r="2.8" fill="#16a34a"/>
<circle cx="540.2" cy="426.3" r="2.8" fill="#16a34a"/>
<circle cx="633.5" cy="426.5" r="2.8" fill="#16a34a"/>
<circle cx="726.8" cy="426.7" r="2.8" fill="#16a34a"/>
<circle cx="820.0" cy="421.9" r="2.8" fill="#16a34a"/>
<line x1="856" y1="390" x2="878" y2="390" stroke="#16a34a" stroke-width="3"/>
<text x="886" y="394" font-size="12" fill="#111827">阿格莱雅 T1.5</text>
<polyline points="74.0,414.5 167.2,415.1 260.5,418.5 353.8,419.2 447.0,420.5 540.2,424.5 633.5,424.5 726.8,424.7 820.0,423.2" fill="none" stroke="#9333ea" stroke-width="2.2"/>
<circle cx="74.0" cy="414.5" r="2.8" fill="#9333ea"/>
<circle cx="167.2" cy="415.1" r="2.8" fill="#9333ea"/>
<circle cx="260.5" cy="418.5" r="2.8" fill="#9333ea"/>
<circle cx="353.8" cy="419.2" r="2.8" fill="#9333ea"/>
<circle cx="447.0" cy="420.5" r="2.8" fill="#9333ea"/>
<circle cx="540.2" cy="424.5" r="2.8" fill="#9333ea"/>
<circle cx="633.5" cy="424.5" r="2.8" fill="#9333ea"/>
<circle cx="726.8" cy="424.7" r="2.8" fill="#9333ea"/>
<circle cx="820.0" cy="423.2" r="2.8" fill="#9333ea"/>
<line x1="856" y1="412" x2="878" y2="412" stroke="#9333ea" stroke-width="3"/>
<text x="886" y="416" font-size="12" fill="#111827">万敌 T0.5</text>
<polyline points="74.0,418.8 167.2,419.6 260.5,420.7 353.8,420.7 447.0,421.1 540.2,427.8 633.5,428.1 726.8,428.2 820.0,423.5" fill="none" stroke="#ea580c" stroke-width="2.2"/>
<circle cx="74.0" cy="418.8" r="2.8" fill="#ea580c"/>
<circle cx="167.2" cy="419.6" r="2.8" fill="#ea580c"/>
<circle cx="260.5" cy="420.7" r="2.8" fill="#ea580c"/>
<circle cx="353.8" cy="420.7" r="2.8" fill="#ea580c"/>
<circle cx="447.0" cy="421.1" r="2.8" fill="#ea580c"/>
<circle cx="540.2" cy="427.8" r="2.8" fill="#ea580c"/>
<circle cx="633.5" cy="428.1" r="2.8" fill="#ea580c"/>
<circle cx="726.8" cy="428.2" r="2.8" fill="#ea580c"/>
<circle cx="820.0" cy="423.5" r="2.8" fill="#ea580c"/>
<line x1="856" y1="434" x2="878" y2="434" stroke="#ea580c" stroke-width="3"/>
<text x="886" y="438" font-size="12" fill="#111827">姬子 T1.5</text>
<polyline points="74.0,424.7 167.2,424.5 260.5,427.3 353.8,427.4 447.0,427.5 540.2,428.9 633.5,429.1 726.8,429.0 820.0,424.1" fill="none" stroke="#0891b2" stroke-width="2.2"/>
<circle cx="74.0" cy="424.7" r="2.8" fill="#0891b2"/>
<circle cx="167.2" cy="424.5" r="2.8" fill="#0891b2"/>
<circle cx="260.5" cy="427.3" r="2.8" fill="#0891b2"/>
<circle cx="353.8" cy="427.4" r="2.8" fill="#0891b2"/>
<circle cx="447.0" cy="427.5" r="2.8" fill="#0891b2"/>
<circle cx="540.2" cy="428.9" r="2.8" fill="#0891b2"/>
<circle cx="633.5" cy="429.1" r="2.8" fill="#0891b2"/>
<circle cx="726.8" cy="429.0" r="2.8" fill="#0891b2"/>
<circle cx="820.0" cy="424.1" r="2.8" fill="#0891b2"/>
<line x1="856" y1="456" x2="878" y2="456" stroke="#0891b2" stroke-width="3"/>
<text x="886" y="460" font-size="12" fill="#111827">Saber T2</text>
<polyline points="74.0,410.2 167.2,411.0 260.5,418.2 353.8,418.7 447.0,420.0 540.2,426.5 633.5,426.5 726.8,426.4 820.0,424.1" fill="none" stroke="#be123c" stroke-width="2.2"/>
<circle cx="74.0" cy="410.2" r="2.8" fill="#be123c"/>
<circle cx="167.2" cy="411.0" r="2.8" fill="#be123c"/>
<circle cx="260.5" cy="418.2" r="2.8" fill="#be123c"/>
<circle cx="353.8" cy="418.7" r="2.8" fill="#be123c"/>
<circle cx="447.0" cy="420.0" r="2.8" fill="#be123c"/>
<circle cx="540.2" cy="426.5" r="2.8" fill="#be123c"/>
<circle cx="633.5" cy="426.5" r="2.8" fill="#be123c"/>
<circle cx="726.8" cy="426.4" r="2.8" fill="#be123c"/>
<circle cx="820.0" cy="424.1" r="2.8" fill="#be123c"/>
<line x1="856" y1="478" x2="878" y2="478" stroke="#be123c" stroke-width="3"/>
<text x="886" y="482" font-size="12" fill="#111827">乱破 T1</text>
<polyline points="74.0,429.4 167.2,429.3 260.5,426.3 353.8,426.1 447.0,426.3 540.2,429.1 633.5,429.1 726.8,429.0 820.0,424.5" fill="none" stroke="#4f46e5" stroke-width="2.2"/>
<circle cx="74.0" cy="429.4" r="2.8" fill="#4f46e5"/>
<circle cx="167.2" cy="429.3" r="2.8" fill="#4f46e5"/>
<circle cx="260.5" cy="426.3" r="2.8" fill="#4f46e5"/>
<circle cx="353.8" cy="426.1" r="2.8" fill="#4f46e5"/>
<circle cx="447.0" cy="426.3" r="2.8" fill="#4f46e5"/>
<circle cx="540.2" cy="429.1" r="2.8" fill="#4f46e5"/>
<circle cx="633.5" cy="429.1" r="2.8" fill="#4f46e5"/>
<circle cx="726.8" cy="429.0" r="2.8" fill="#4f46e5"/>
<circle cx="820.0" cy="424.5" r="2.8" fill="#4f46e5"/>
<line x1="856" y1="500" x2="878" y2="500" stroke="#4f46e5" stroke-width="3"/>
<text x="886" y="504" font-size="12" fill="#111827">飞霄 T2</text>
<polyline points="74.0,428.2 167.2,428.4 260.5,427.8 353.8,428.0 447.0,428.3 540.2,429.0 633.5,429.0 726.8,429.0 820.0,428.9" fill="none" stroke="#65a30d" stroke-width="2.2"/>
<circle cx="74.0" cy="428.2" r="2.8" fill="#65a30d"/>
<circle cx="167.2" cy="428.4" r="2.8" fill="#65a30d"/>
<circle cx="260.5" cy="427.8" r="2.8" fill="#65a30d"/>
<circle cx="353.8" cy="428.0" r="2.8" fill="#65a30d"/>
<circle cx="447.0" cy="428.3" r="2.8" fill="#65a30d"/>
<circle cx="540.2" cy="429.0" r="2.8" fill="#65a30d"/>
<circle cx="633.5" cy="429.0" r="2.8" fill="#65a30d"/>
<circle cx="726.8" cy="429.0" r="2.8" fill="#65a30d"/>
<circle cx="820.0" cy="428.9" r="2.8" fill="#65a30d"/>
<line x1="856" y1="522" x2="878" y2="522" stroke="#65a30d" stroke-width="3"/>
<text x="886" y="526" font-size="12" fill="#111827">银枝 T2</text>
</svg>